# xmcd
#
# Track frame offsets:
#	150
#	14025
#	33750
#	53475
#	68700
#	83625
#	100200
#	115725
#	131700
#	148125
#	166275
#	183375
#	201225
#	217950
#
# Disc length: 3099 seconds
#
# Revision: 1
# Processed by: cddbd v1.5.2PL0 Copyright (c) Steve Scherf et al.
# Submitted via: audiograbber 1.83.01
#
DISCID=c00c190e
DTITLE=Los pasteles Verdes - 17 Exitos Romanticos
DYEAR=1900
DGENRE=Ballad
TTITLE0=Recuerdos de una noche
TTITLE1=Hipocresia
TTITLE2=Otra Copa
TTITLE3=Angelito Negro
TTITLE4=Quinto patio
TTITLE5=En mi viejo San juan
TTITLE6=Esclavo y Amo
TTITLE7=El Reloj
TTITLE8=Besame Mucho
TTITLE9=Ruega por nosotros
TTITLE10=Ya es muy Tarde
TTITLE11=Caminito
TTITLE12=Viajera
TTITLE13=Te amo y no soy correspondido
EXTD=
EXTT0=
EXTT1=
EXTT2=
EXTT3=
EXTT4=
EXTT5=
EXTT6=
EXTT7=
EXTT8=
EXTT9=
EXTT10=
EXTT11=
EXTT12=
EXTT13=
PLAYORDER=
